<svg width="151" height="170" viewBox="0 0 151 170" fill="none" xmlns="http://www.w3.org/2000/svg">
<path d="M58.476 73.2673V99.8103L61.4898 99.8363V87.1906H68.7597V83.8532H61.4898V76.6048H70.9453V73.2673H58.476ZM76.3747 78.6646C77.456 78.6646 78.3533 77.6738 78.3533 76.4222C78.3533 75.1707 77.479 74.1799 76.3747 74.1799C75.2934 74.1799 74.3962 75.1707 74.3962 76.4222C74.3962 77.6738 75.2704 78.6646 76.3747 78.6646ZM74.8333 82.002V99.8363H77.8471V82.002H74.8333ZM89.0281 81.4805C85.025 81.4805 82.2413 85.3133 82.2413 89.8762C82.2413 94.4391 85.025 98.2719 89.0281 98.2719C90.8686 98.2719 92.364 97.4897 93.4683 96.16V98.5327C93.4913 101.479 91.4207 103.93 88.798 103.956C88.775 103.956 88.775 103.956 88.752 103.956C87.7858 103.956 86.8425 103.539 86.0833 102.939L84.5649 105.912C88.1539 108.545 92.9391 107.372 95.2397 103.304C96.045 101.87 96.4821 100.227 96.4821 98.5327V82.0281H93.4683V83.6186C92.364 82.2888 90.8686 81.4805 89.0281 81.4805ZM85.2551 89.8762C85.2551 87.0342 87.1646 84.8179 89.3732 84.8179C91.5818 84.8179 93.4683 87.0603 93.4683 89.8762C93.4683 92.7183 91.5588 94.9084 89.3732 94.9084C87.1646 94.9084 85.2551 92.6922 85.2551 89.8762ZM107.341 84.8179C105.547 84.844 104.097 86.5127 104.12 88.5465V99.8103H101.106V81.9759H104.12V83.6186C105.04 82.2367 106.467 81.4544 108.008 81.4805C110.125 81.4805 111.758 82.6538 112.678 84.479C113.737 82.6278 115.531 81.5066 117.464 81.4805C120.892 81.4805 123.031 84.6094 123.031 88.4943V99.8103H120.04V88.5465C120.04 86.5127 118.614 84.844 116.82 84.8179C115.025 84.844 113.576 86.5127 113.599 88.5465V99.8103H110.562V88.5465C110.562 86.5127 109.135 84.844 107.341 84.8179ZM139.089 84.0097C137.709 82.367 135.777 81.4544 133.775 81.4805C129.289 81.4805 126.114 85.7827 126.114 90.8931C126.114 96.0296 129.289 100.306 133.775 100.306C135.777 100.306 137.686 99.3931 139.089 97.7765V99.8103H142.103V81.9759H139.089V84.0097ZM129.128 90.8931C129.128 87.5035 131.428 84.7919 134.12 84.7919C136.789 84.8179 139.089 87.5035 139.089 90.8931C139.089 94.2827 136.789 96.9683 134.097 96.9683C131.451 96.9943 129.128 94.3087 129.128 90.8931Z" fill="black"/>
<path d="M29.543 88.4615C29.543 79.9703 35.2263 73.0769 42.2269 73.0769C49.2274 73.0769 54.9107 79.9703 54.9107 88.4615C54.9107 96.9527 49.2274 103.846 42.2269 103.846C35.2263 103.846 29.543 96.9527 29.543 88.4615Z" fill="#1ABCFE"/>
<path d="M5.27832 119.231C5.27832 110.74 10.7145 103.846 17.4107 103.846H29.543V119.231C29.543 127.722 24.1069 134.615 17.4107 134.615C10.7145 134.615 5.27832 127.722 5.27832 119.231Z" fill="#0ACF83"/>
<path d="M29.543 41.5854V73.077H42.2269C49.2274 73.077 54.9107 66.0113 54.9107 57.3078C54.9107 48.6043 49.2274 41.5386 42.2269 41.5386H29.543V41.5854Z" fill="#FF7262"/>
<path d="M5.27832 57.2845C5.27832 66.0008 10.7145 73.077 17.4107 73.077H29.543V41.5388H17.4107C10.7145 41.4919 5.27832 48.5681 5.27832 57.2845Z" fill="#F24E1E"/>
<path d="M5.27832 88.4388C5.27832 96.9425 10.7145 103.846 17.4107 103.846H29.543V73.0771H17.4107C10.7145 73.0314 5.27832 79.935 5.27832 88.4388Z" fill="#A259FF"/>
</svg>
