<svg width="266" height="63" viewBox="0 0 266 63" fill="none" xmlns="http://www.w3.org/2000/svg">
<path d="M36.0307 42.3731C36.0307 48.7354 34.1634 50.5877 31.3624 50.5877H27.1821C27.1503 50.5877 27.1397 50.5474 27.1397 50.4669V24.2929C27.1397 24.2527 27.1503 24.2325 27.1715 24.2325H31.4261C34.0891 24.2325 36.0201 26.6486 36.0201 31.682L36.0307 42.3731ZM31.9353 13.6019H21.6969C20.742 13.6019 20.742 15.2126 20.742 15.2126V59.809C20.742 61.2183 21.3892 61.3391 22.1849 61.3391H31.2669C38.6726 61.3391 42.5876 56.4265 42.5876 43.4402V30.9371C42.5982 16.8434 37.3357 13.6019 31.9353 13.6019ZM63.1176 55.9433C63.0539 58.7217 62.7356 61.3593 62.3218 61.3593H48.8474C46.6936 61.3593 46.3116 60.4532 46.3116 59.6882V14.9911C46.3116 13.6019 47.9455 13.1187 49.781 12.9576C51.6696 12.7764 52.6987 13.0985 52.6987 14.7696V50.2655C52.6987 50.6279 52.8261 50.6883 52.9215 50.6883H62.1733C63.0539 50.6682 63.2025 52.2789 63.1176 55.9433ZM7.47971 62.1847C3.39493 62.1847 1.02894 61.2385 0.402963 60.413C0.0210101 59.9096 -0.148747 59.4868 0.190767 55.1983C0.360524 53.0037 1.02894 50.0843 1.97322 50.7487C2.99176 51.4534 11.3629 54.4332 11.3629 48.2522C11.3523 41.5476 0.58333 43.8831 0.58333 26.5681C0.58333 18.8165 2.36578 12.8569 10.1322 12.8569C14.7262 12.8569 16.2646 14.367 16.689 14.7092C17.1559 15.0717 17.3574 16.2394 17.0498 20.0044C16.827 22.7426 16.0312 24.3735 15.3946 24.0111C13.6758 23.0044 6.85373 21.4541 6.85373 26.3466C6.85373 33.0914 17.6227 30.8364 17.6227 48.4736C17.6227 56.507 15.7341 62.1847 7.47971 62.1847Z" fill="#536271"/>
<path d="M73.3456 9.73633C73.3456 9.7162 73.3456 9.7162 73.3456 9.73633L72.3377 6.69613C72.1892 6.23305 71.8603 6.09212 71.6162 6.39412L66.5448 12.3537L65.0912 1.42107C65.0169 0.897596 64.7411 0.575455 64.4546 0.696258L62.6297 1.56201C62.3539 1.68281 62.1841 2.22643 62.2478 2.74991L63.7013 13.7228L57.7174 12.9376C57.4309 12.8973 57.1869 13.3 57.1657 13.8436L57.049 17.3872C57.0278 17.9308 57.2506 18.3939 57.537 18.4341L63.5103 19.2194L61.2611 29.7091C61.155 30.2124 61.2823 30.7762 61.5475 30.9775L63.2875 32.3063C63.5528 32.5077 63.8605 32.2661 63.9666 31.7627L66.2159 21.273L70.8099 28.5413C71.0327 28.8836 71.3616 28.8433 71.542 28.4205L72.7515 25.7024C72.9319 25.2796 72.9 24.6756 72.6878 24.3333L68.0938 17.065L73.1759 11.0652C73.4199 10.8034 73.4942 10.1994 73.3456 9.73633Z" fill="#39B55A"/>
<path d="M86.8732 62.6479V17.2261H78.8946V13.904H96.9101V17.2261H88.9315V62.6479H86.8732ZM96.4326 62.6479V32.0848C96.4326 30.0513 99.4246 25.9843 103.265 25.9843H105.621V28.8835C105.621 28.8835 103.615 29.1654 103.085 29.1654C100.486 29.1654 98.3848 31.5412 98.3848 33.0311V62.6681L96.4326 62.6479ZM118.501 37.5612C118.501 31.7224 117.642 28.7426 114.406 28.7426C112.835 28.7426 108.581 29.0043 108.581 29.0043L108.464 25.9641C108.464 25.9641 112.443 25.6219 114.586 25.6219C119.254 25.6219 120.464 30.1721 120.464 37.5612V58.5809C120.464 61.8426 114.883 62.1848 111.997 62.1848C108.326 62.1848 107.435 58.4601 107.435 51.9367C107.435 46.1785 108.082 42.9571 111.711 42.0712C113.578 41.6081 116.337 41.9101 118.501 43.9436V37.5612ZM118.501 47.1852C118.501 45.4335 114.257 44.306 112.167 44.7691C110.162 45.2121 109.419 47.4469 109.419 51.9971C109.419 56.8695 110.034 59.3863 112.316 59.3863C115.053 59.3863 118.501 59.3862 118.501 57.6145V47.1852ZM124.305 37.078C124.305 30.6352 125.546 25.9843 129.355 25.9843C132.803 25.9843 134.172 25.7829 135.487 27.8769V11.2463H137.45V56.8695C137.45 59.3863 134.384 61.762 129.259 61.762C125.313 61.762 124.315 56.8091 124.315 50.3059L124.305 37.078ZM126.267 50.3059C126.267 55.2588 127.116 58.8628 129.461 58.8628C133.196 58.8628 135.487 57.2923 135.487 55.5407V31.8633C134.957 30.0916 133.376 28.9037 129.716 28.9037C127.36 28.9037 126.267 32.2056 126.267 37.0981V50.3059ZM225.989 37.078C225.989 30.6352 227.23 25.9843 231.039 25.9843C234.498 25.9843 235.856 25.7829 237.172 27.8769V11.2463H239.135V56.8695C239.135 59.3863 236.068 61.762 230.944 61.762C226.997 61.762 226 56.8091 226 50.3059V37.078H225.989ZM227.941 50.3059C227.941 55.2588 228.79 58.8628 231.135 58.8628C234.869 58.8628 237.161 57.2923 237.161 55.5407V31.8633C236.631 30.0916 235.05 28.9037 231.389 28.9037C229.034 28.9037 227.941 32.2056 227.941 37.0981V50.3059ZM154.765 52.3596C154.765 59.2051 152.696 62.5875 148.145 62.5875C143.593 62.5875 141.482 59.2051 141.482 52.3596V35.4673C141.482 28.6218 143.583 25.2393 148.145 25.2393C152.707 25.2393 154.765 28.6218 154.765 35.4673V52.3596ZM152.813 35.4673C152.813 30.7157 151.455 28.1386 148.145 28.1386C144.803 28.1386 143.445 30.7157 143.445 35.4673V52.279C143.445 56.9501 144.792 59.6681 148.145 59.6681C151.455 59.6681 152.813 56.9501 152.813 52.279V35.4673ZM158.585 58.6816C158.585 58.6816 161.778 58.7218 163.667 58.7218C166.022 58.7218 168.134 58.0574 168.134 52.9636C168.134 44.9705 158.84 44.8295 158.84 34.0378C158.84 26.9104 162.245 25.8635 164.664 25.8635H169.545L169.502 28.9238H164.728C162.659 28.9238 160.717 29.85 160.717 33.7761C160.717 41.7692 170.012 41.9101 170.012 52.6817C170.012 60.554 167.041 61.762 163.731 61.762H158.574L158.585 58.6816ZM178.956 58.3393C178.956 58.3393 183.2 58.3594 185.746 58.3594C189.067 58.3594 191.847 57.7957 191.847 50.0844C191.847 38.8296 179.539 37.1183 179.539 22.7629C179.539 13.4812 183.9 12.696 187.221 12.696C189.767 12.696 192.886 12.7362 192.886 12.7362L192.908 16.3201H187.316C184.261 16.3201 181.629 16.763 181.629 22.7025C181.629 33.9573 193.969 35.6485 193.969 50.1046C193.969 59.95 190.075 61.7822 185.842 61.7822H178.945L178.956 58.3393ZM205.194 62.1647H201.979C200.016 62.1647 198.531 61.2386 198.531 55.6615V29.6889H196.43V26.6487H198.531V17.7093H200.494V26.6487H205.268V29.709H200.494V55.3998C200.494 58.7218 201.236 58.7822 202.266 58.7822C203.337 58.7822 205.183 58.8225 205.183 58.8225L205.194 62.1647ZM219.358 25.9641H221.321V57.0105C221.321 59.4467 217.766 62.6681 212.493 61.6412C208.557 60.8762 208.186 57.0105 208.186 50.4871V25.9641H210.149V50.5072C210.149 55.3796 210.276 58.3997 212.716 58.742C216.44 59.2654 219.369 57.4937 219.369 55.6011L219.358 25.9641ZM248.768 61.762H246.455C244.386 61.762 242.827 60.1916 242.827 54.232V25.7628H244.79V54.1112C244.79 57.9769 245.575 58.7218 246.784 58.7218C247.283 58.7218 248.779 58.742 248.779 58.742L248.768 61.762ZM242.901 12.7362H244.79V18.8972H242.901V12.7362ZM265.086 52.3596C265.086 59.2051 263.017 62.5875 258.466 62.5875C253.904 62.5875 251.803 59.2051 251.803 52.3596V35.4673C251.803 28.6218 253.904 25.2393 258.466 25.2393C263.028 25.2393 265.086 28.6218 265.086 35.4673V52.3596ZM263.134 35.4673C263.134 30.7157 261.776 28.1386 258.466 28.1386C255.124 28.1386 253.766 30.7157 253.766 35.4673V52.279C253.766 56.9501 255.124 59.6681 258.466 59.6681C261.776 59.6681 263.134 56.9501 263.134 52.279V35.4673Z" fill="#5E6E7F"/>
</svg>
