<svg width="60" height="25" viewBox="0 0 60 25" fill="none" xmlns="http://www.w3.org/2000/svg">
<g clip-path="url(#clip0_115_87)">
<path d="M16.1509 15.7888C15.1918 15.7888 14.2932 15.2131 13.4767 14.2761L13.6755 12.9532L13.6842 12.9042C13.8612 11.4957 14.4229 9.13145 16.1509 9.13145C17.4468 9.13145 18.5009 10.6259 18.5009 12.4631C18.4966 14.2944 17.4426 15.7888 16.1509 15.7888ZM16.1509 5.75694C13.9433 5.75694 12.2327 7.79027 11.5372 11.1342C10.4744 8.87426 9.67087 6.16119 9.20005 3.87671H6.82406V12.6408C6.82406 14.3679 5.83044 15.7764 4.61219 15.7764C3.39394 15.7764 2.40044 14.3679 2.40044 12.6408V3.87671H0.0242123V12.6408C0.0155681 16.2298 2.07622 19.1756 4.6077 19.1756C7.13928 19.1756 9.19994 16.2298 9.19994 12.6408V11.171C9.66211 12.5367 10.228 13.9146 10.9149 15.1396L9.45903 24.8406H11.8913L12.9453 17.8037C13.8697 18.6427 14.9325 19.1695 16.1508 19.1695C18.7557 19.1695 20.8768 16.144 20.8768 12.4509C20.8768 8.76396 18.7557 5.75694 16.1508 5.75694H16.1509Z" fill="#6FDA44"/>
<path d="M28.1301 6.13667L29.6637 14.9007L31.3529 6.13667H33.3659L30.7697 18.802H28.7565L27.1625 9.98275L25.5727 18.7958H23.5596L20.9632 6.13062H22.9763L24.6654 14.8947L26.199 6.13062H28.13V6.13683L28.1301 6.13667ZM38.1827 5.75693C35.5691 5.75693 33.4524 8.76396 33.4524 12.4631C33.4524 16.1685 35.5734 19.1695 38.1827 19.1695C40.7963 19.1695 42.9174 16.1685 42.9174 12.4631C42.9174 8.75791 40.7963 5.75693 38.1827 5.75693ZM38.1827 16.4135C36.6448 16.4135 35.4006 14.6496 35.4006 12.4694C35.4006 10.289 36.6491 8.52523 38.1827 8.52523C39.7206 8.52523 40.9647 10.289 40.9647 12.4694C40.9647 14.6435 39.7206 16.4135 38.1827 16.4135ZM48.6672 8.97229C47.3152 8.97229 46.2222 10.5278 46.2222 12.4386V18.7958H44.196V6.13667H46.2222V8.08422C46.2222 8.08422 47.0862 6.13046 48.8617 6.13046H49.4837V8.97229H48.6672ZM55.467 11.9733C56.9054 10.8218 57.8818 8.63536 57.8818 6.13046H55.8556C55.8556 8.24337 54.6461 9.95824 53.1558 9.95824H52.8835V0.0244141H50.8576V18.7957H52.8835V12.8306H53.1256C53.3243 12.8306 53.5835 13.0145 53.7001 13.2409L56.5771 18.7958H59.005L55.467 11.9733Z" fill="white"/>
</g>
<defs>
<clipPath id="clip0_115_87">
<rect width="59.0164" height="25" fill="white"/>
</clipPath>
</defs>
</svg>
